# xmcd
#
# Track frame offsets:
#	150
#	10219
#	30963
#	46606
#	57527
#	83708
#	97981
#	115791
#	131549
#
# Disc length: 1898 seconds
#
# Revision: 0
# Processed by: cddbd v1.5.2PL0 Copyright (c) Steve Scherf et al.
# Submitted via: EZCDAudioConverter 1.3.2.1
#
DISCID=60076809
DTITLE=Stevie Ray Vaughan - The Sky is Crying
DYEAR=1991
DGENRE=Blues
TTITLE0=01 Boot hill - 01 Boot hill
TTITLE1=02 The sky is crying - 02 The sky is crying
TTITLE2=03 Empty arms - 03 Empty arms
TTITLE3=04 Little wing - 04 Little wing
TTITLE4=05 May I have a little talk with you - 05 May I have a little talk wit
TTITLE4=h you
TTITLE5=06 Close to you - 06 Close to you
TTITLE6=07 Chitlins con carne - 07 Chitlins con carne
TTITLE7=08 So excited - 08 So excited
TTITLE8=09 Life by the drop - 09 Life by the drop
EXTD=
EXTT0=
EXTT1=
EXTT2=
EXTT3=
EXTT4=
EXTT5=
EXTT6=
EXTT7=
EXTT8=
PLAYORDER=
